<?xml version="1.0" encoding="UTF-8"?>
<svg width="47px" height="74px" viewBox="0 0 47 74" version="1.1" xmlns="http://www.w3.org/2000/svg" xmlns:xlink="http://www.w3.org/1999/xlink">
    <!-- Generator: Sketch 41 (35326) - http://www.bohemiancoding.com/sketch -->
    <title>broken screen</title>
    <desc>Created with Sketch.</desc>
    <defs></defs>
    <g id="Page-1" stroke="none" stroke-width="1" fill="none" fill-rule="evenodd">
        <g id="broken-screen" transform="translate(0.000000, -1.000000)" fill="#000105">
            <path d="M6.669,2.999 C4.095,2.999 2,5.094 2,7.668 L2,68.331 C2,70.905 4.095,73 6.669,73 L39.665,73 C42.239,73 44.334,70.905 44.334,68.331 L44.334,7.668 C44.334,5.094 42.239,2.999 39.665,2.999 L6.669,2.999 Z M39.665,75 L6.669,75 C2.992,75 0,72.009 0,68.331 L0,7.668 C0,3.991 2.992,0.999 6.669,0.999 L39.665,0.999 C43.342,0.999 46.334,3.991 46.334,7.668 L46.334,68.331 C46.334,72.009 43.342,75 39.665,75 L39.665,75 Z" id="Fill-1"></path>
            <path d="M23.167,60.967 C21.559,60.967 20.25,62.275 20.25,63.883 C20.25,65.491 21.559,66.8 23.167,66.8 C24.775,66.8 26.083,65.491 26.083,63.883 C26.083,62.275 24.775,60.967 23.167,60.967 Z M23.167,68.8 C20.456,68.8 18.25,66.594 18.25,63.883 C18.25,61.172 20.456,58.967 23.167,58.967 C25.878,58.967 28.083,61.172 28.083,63.883 C28.083,66.594 25.878,68.8 23.167,68.8 L23.167,68.8 Z" id="Fill-2"></path>
            <path d="M27.25,10.216 L19.083,10.216 C18.531,10.216 18.083,9.769 18.083,9.216 C18.083,8.664 18.531,8.216 19.083,8.216 L27.25,8.216 C27.803,8.216 28.25,8.664 28.25,9.216 C28.25,9.769 27.803,10.216 27.25,10.216" id="Fill-3"></path>
            <path d="M10.502,40.383 C10.462,40.383 10.422,40.381 10.381,40.376 C9.833,40.311 9.442,39.812 9.508,39.264 L10.576,30.363 L25.414,23.861 L26.308,16.869 L42.523,3.234 C42.947,2.881 43.577,2.934 43.933,3.356 C44.288,3.779 44.233,4.41 43.811,4.766 L28.193,17.897 L27.253,25.238 L12.425,31.736 L11.493,39.502 C11.433,40.01 11.001,40.383 10.502,40.383" id="Fill-4"></path>
            <path d="M32.668,45.883 C32.301,45.884 31.948,45.681 31.772,45.331 L25.685,33.157 L43.324,5.463 C43.62,4.998 44.238,4.858 44.704,5.157 C45.17,5.453 45.307,6.071 45.01,6.537 L27.981,33.276 L33.562,44.436 C33.809,44.93 33.608,45.531 33.114,45.778 C32.971,45.85 32.818,45.883 32.668,45.883" id="Fill-5"></path>
            <path d="M14.833,53.883 C14.723,53.883 14.61,53.864 14.499,53.825 C13.979,53.641 13.706,53.069 13.891,52.549 L16.867,44.146 L29.507,38.471 C30.01,38.243 30.603,38.47 30.829,38.974 C31.056,39.477 30.831,40.069 30.327,40.295 L18.467,45.621 L15.776,53.217 C15.631,53.627 15.245,53.883 14.833,53.883" id="Fill-6"></path>
            <path d="M37.333,35.05 C37.098,35.05 36.861,34.967 36.67,34.798 L29.618,28.552 C29.204,28.186 29.166,27.554 29.532,27.141 C29.899,26.728 30.53,26.689 30.944,27.055 L37.997,33.301 C38.41,33.667 38.448,34.299 38.082,34.713 C37.884,34.936 37.609,35.05 37.333,35.05" id="Fill-7"></path>
        </g>
    </g>
</svg>