<?xml version="1.0" encoding="UTF-8"?>
<svg width="47px" height="74px" viewBox="0 0 47 74" version="1.1" xmlns="http://www.w3.org/2000/svg" xmlns:xlink="http://www.w3.org/1999/xlink">
    <!-- Generator: Sketch 41 (35326) - http://www.bohemiancoding.com/sketch -->
    <title>screen wrong</title>
    <desc>Created with Sketch.</desc>
    <defs></defs>
    <g id="Page-1" stroke="none" stroke-width="1" fill="none" fill-rule="evenodd">
        <g id="screen-wrong" transform="translate(0.000000, -1.000000)" fill="#000105">
            <path d="M6.669,2.999 C4.095,2.999 2,5.094 2,7.668 L2,68.331 C2,70.905 4.095,73 6.669,73 L39.665,73 C42.239,73 44.334,70.905 44.334,68.331 L44.334,7.668 C44.334,5.094 42.239,2.999 39.665,2.999 L6.669,2.999 Z M39.665,75 L6.669,75 C2.992,75 0,72.009 0,68.331 L0,7.668 C0,3.991 2.992,0.999 6.669,0.999 L39.665,0.999 C43.342,0.999 46.334,3.991 46.334,7.668 L46.334,68.331 C46.334,72.009 43.342,75 39.665,75 L39.665,75 Z" id="Fill-1"></path>
            <path d="M23.167,60.967 C21.559,60.967 20.25,62.275 20.25,63.883 C20.25,65.491 21.559,66.8 23.167,66.8 C24.775,66.8 26.083,65.491 26.083,63.883 C26.083,62.275 24.775,60.967 23.167,60.967 Z M23.167,68.8 C20.456,68.8 18.25,66.594 18.25,63.883 C18.25,61.172 20.456,58.967 23.167,58.967 C25.878,58.967 28.083,61.172 28.083,63.883 C28.083,66.594 25.878,68.8 23.167,68.8 L23.167,68.8 Z" id="Fill-2"></path>
            <path d="M27.25,10.216 L19.083,10.216 C18.531,10.216 18.083,9.769 18.083,9.216 C18.083,8.664 18.531,8.216 19.083,8.216 L27.25,8.216 C27.803,8.216 28.25,8.664 28.25,9.216 C28.25,9.769 27.803,10.216 27.25,10.216" id="Fill-3"></path>
            <path d="M14.654,27.758 L33.154,43.425" id="Fill-4"></path>
            <path d="M33.154,44.425 C32.925,44.425 32.696,44.347 32.508,44.188 L14.008,28.521 C13.586,28.164 13.534,27.533 13.891,27.111 C14.248,26.69 14.878,26.637 15.301,26.995 L33.801,42.662 C34.222,43.019 34.274,43.65 33.917,44.071 C33.72,44.305 33.437,44.425 33.154,44.425" id="Fill-5"></path>
            <path d="M33.154,27.758 L14.654,43.425" id="Fill-6"></path>
            <path d="M14.655,44.425 C14.371,44.425 14.089,44.305 13.891,44.071 C13.534,43.65 13.586,43.019 14.008,42.662 L32.508,26.995 C32.93,26.639 33.561,26.691 33.917,27.111 C34.274,27.533 34.222,28.164 33.801,28.521 L15.301,44.188 C15.113,44.347 14.883,44.425 14.655,44.425" id="Fill-7"></path>
        </g>
    </g>
</svg>