<?xml version="1.0" encoding="UTF-8"?>
<svg width="67px" height="74px" viewBox="0 0 67 74" version="1.1" xmlns="http://www.w3.org/2000/svg" xmlns:xlink="http://www.w3.org/1999/xlink">
    <!-- Generator: Sketch 41 (35326) - http://www.bohemiancoding.com/sketch -->
    <title>not work</title>
    <desc>Created with Sketch.</desc>
    <defs></defs>
    <g id="Page-1" stroke="none" stroke-width="1" fill="none" fill-rule="evenodd">
        <g id="not-work" transform="translate(1.000000, -1.000000)">
            <path d="M15.752,2.999 C13.178,2.999 11.083,5.094 11.083,7.668 L11.083,68.331 C11.083,70.905 13.178,73 15.752,73 L48.748,73 C51.322,73 53.417,70.905 53.417,68.331 L53.417,7.668 C53.417,5.094 51.322,2.999 48.748,2.999 L15.752,2.999 Z M48.748,75 L15.752,75 C12.075,75 9.083,72.009 9.083,68.331 L9.083,7.668 C9.083,3.991 12.075,0.999 15.752,0.999 L48.748,0.999 C52.425,0.999 55.417,3.991 55.417,7.668 L55.417,68.331 C55.417,72.009 52.425,75 48.748,75 L48.748,75 Z" id="Fill-1" fill="#000105"></path>
            <path d="M32.25,60.967 C30.642,60.967 29.333,62.275 29.333,63.883 C29.333,65.491 30.642,66.8 32.25,66.8 C33.858,66.8 35.166,65.491 35.166,63.883 C35.166,62.275 33.858,60.967 32.25,60.967 Z M32.25,68.8 C29.539,68.8 27.333,66.594 27.333,63.883 C27.333,61.172 29.539,58.967 32.25,58.967 C34.961,58.967 37.167,61.172 37.167,63.883 C37.167,66.594 34.961,68.8 32.25,68.8 L32.25,68.8 Z" id="Fill-2" fill="#000105"></path>
            <path d="M36.333,10.216 L28.166,10.216 C27.614,10.216 27.166,9.769 27.166,9.216 C27.166,8.664 27.614,8.216 28.166,8.216 L36.333,8.216 C36.886,8.216 37.333,8.664 37.333,9.216 C37.333,9.769 36.886,10.216 36.333,10.216" id="Fill-3" fill="#000105"></path>
            <path d="M0,5.716 L64.5,63.216" id="Fill-4" fill="#000105"></path>
            <path d="M0,5.716 L64.5,63.216" id="Stroke-5" stroke="#000105" stroke-width="2" stroke-linecap="round"></path>
            <path d="M64.5,5.716 L0,63.216" id="Fill-7" fill="#000105"></path>
            <path d="M64.5,5.716 L0,63.216" id="Stroke-8" stroke="#000105" stroke-width="2" stroke-linecap="round"></path>
        </g>
    </g>
</svg>