<?xml version="1.0" encoding="UTF-8"?>
<svg width="61px" height="60px" viewBox="0 0 61 60" version="1.1" xmlns="http://www.w3.org/2000/svg" xmlns:xlink="http://www.w3.org/1999/xlink">
    <!-- Generator: Sketch 43.2 (39069) - http://www.bohemiancoding.com/sketch -->
    <title>Pinterest</title>
    <desc>Created with Sketch.</desc>
    <defs></defs>
    <g id="Page-1" stroke="none" stroke-width="1" fill="none" fill-rule="evenodd">
        <g id="Colour" transform="translate(-632.000000, 0.000000)">
            <g id="Row-1">
                <g id="Pinterest" transform="translate(632.000000, 0.000000)">
                    <path d="M0.913294798,30 C0.913294798,13.4314567 14.3641611,0 30.9566474,0 C47.5491337,0 61,13.4314567 61,30 C61,46.5685433 47.5491337,60 30.9566474,60 C14.3641611,60 0.913294798,46.5685433 0.913294798,30 Z" fill="#CB2027"></path>
                    <path d="M18.173147,25.6564894 C18.173147,28.9590618 19.4253079,31.8971698 22.1109506,32.9920559 C22.5513319,33.1718356 22.9457957,32.9982405 23.0735105,32.5113638 C23.1623556,32.1744101 23.3725085,31.3243485 23.4662657,30.9703339 C23.5950484,30.4887888 23.5450731,30.3198854 23.1896926,29.9001862 C22.4152878,28.9880654 21.9204461,27.8072348 21.9204461,26.1346224 C21.9204461,21.2820631 25.5562617,16.93792 31.3880039,16.93792 C36.5519128,16.93792 39.3889765,20.08865 39.3889765,24.2965188 C39.3889765,29.8330087 36.9352709,34.5057882 33.2926211,34.5057882 C31.2810053,34.5057882 29.7751233,32.8444787 30.2577915,30.8069754 C30.8357119,28.3745112 31.9552458,25.7492583 31.9552458,23.9934738 C31.9552458,22.4217342 31.1103629,21.1108139 29.3618654,21.1108139 C27.3053999,21.1108139 25.653436,23.2351148 25.653436,26.0808804 C25.653436,27.8933925 26.2668091,29.1192214 26.2668091,29.1192214 C26.2668091,29.1192214 24.1622903,38.0231153 23.793455,39.5824856 C23.0587742,42.6880041 23.6830393,46.4949407 23.7357911,46.8794518 C23.7667587,47.1072154 24.0599903,47.1613839 24.1928309,46.9892816 C24.382481,46.7421112 26.8317017,43.7227504 27.6644111,40.7057356 C27.8999788,39.8514088 29.0169499,35.427719 29.0169499,35.427719 C29.6849968,36.7002523 31.6376672,37.8211564 33.7142083,37.8211564 C39.8957781,37.8211564 44.0896521,32.1938169 44.0896521,24.6614098 C44.0896521,18.9658266 39.2584853,13.6613656 31.9157354,13.6613656 C22.7796382,13.6613656 18.173147,20.2021053 18.173147,25.6564894 Z" id="Path" fill="#FFFFFF"></path>
                    <path d="M61,30 C61,46.5685433 47.5491337,60 30.9566474,60 C24.8028873,60 19.0812546,58.1525134 14.3177843,54.9827754 L48.7423426,5.81941103 C56.1761056,11.2806503 61,20.0777973 61,30 Z" id="reflec" fill-opacity="0.08" fill="#000000"></path>
                </g>
            </g>
        </g>
    </g>
</svg>