<?xml version="1.0" encoding="UTF-8"?>
<svg width="20px" height="32px" viewBox="0 0 20 32" version="1.1" xmlns="http://www.w3.org/2000/svg" xmlns:xlink="http://www.w3.org/1999/xlink">
    <!-- Generator: Sketch 41 (35326) - http://www.bohemiancoding.com/sketch -->
    <title>iphone</title>
    <desc>Created with Sketch.</desc>
    <defs></defs>
    <g id="Page-1" stroke="none" stroke-width="1" fill="none" fill-rule="evenodd">
        <g id="iphone" fill="#000000">
            <g id="Group">
                <path d="M17.4713043,0 L2.13089855,0 C0.984927536,0 0.0525217391,0.933333333 0.0525217391,2.08057971 L0.0525217391,29.8129855 C0.0525217391,30.9596522 0.984811594,31.8924058 2.13089855,31.8924058 L17.4711884,31.8924058 C18.6173913,31.8924058 19.549913,30.9596522 19.549913,29.8129855 L19.549913,2.08057971 C19.550029,0.933333333 18.6175072,0 17.4713043,0 Z M1.79176812,7.18075362 L17.8108986,7.18110145 L17.8108986,22.6504348 L1.79176812,22.6504348 L1.79176812,7.18075362 Z M2.13089855,1.73913043 L17.4711884,1.73913043 C17.6584348,1.73913043 17.8107826,1.89228986 17.8107826,2.08057971 L17.8107826,5.44185507 L1.79176812,5.44162319 L1.79176812,2.08057971 C1.79176812,1.89228986 1.94388406,1.73913043 2.13089855,1.73913043 Z M17.4713043,30.1532754 L2.13089855,30.1532754 C1.94701449,30.1532754 1.79165217,29.9974493 1.79165217,29.8129855 L1.79165217,24.3894493 L17.8107826,24.3894493 L17.8107826,29.8129855 C17.8108986,30.0005797 17.6585507,30.1532754 17.4713043,30.1532754 Z" id="Shape"></path>
                <path d="M9.80127536,25.2125217 C8.66689855,25.2125217 7.744,26.1361159 7.744,27.2714203 C7.744,28.4051014 8.66689855,29.3274203 9.80127536,29.3274203 C10.9357681,29.3274203 11.8586667,28.4051014 11.8586667,27.2714203 C11.8586667,26.1361159 10.9356522,25.2125217 9.80127536,25.2125217 Z M9.80127536,28.168 C9.30284058,28.168 8.90342029,27.7671884 8.90342029,27.2714203 C8.90342029,26.7751884 9.30284058,26.371942 9.80127536,26.371942 C10.2986667,26.371942 10.6992464,26.7753043 10.6992464,27.2714203 C10.6992464,27.7671884 10.2986667,28.168 9.80127536,28.168 Z" id="Shape"></path>
                <path d="M8.05217391,4.17008696 L11.5506087,4.17008696 C11.8707246,4.17008696 12.1303188,3.91049275 12.1303188,3.59037681 C12.1303188,3.27026087 11.8707246,3.01066667 11.5506087,3.01066667 L8.05217391,3.01066667 C7.73205797,3.01066667 7.47246377,3.27026087 7.47246377,3.59037681 C7.47246377,3.91049275 7.73194203,4.17008696 8.05217391,4.17008696 Z" id="Shape"></path>
            </g>
        </g>
    </g>
</svg>