<?xml version="1.0" encoding="UTF-8"?>
<svg width="50px" height="32px" viewBox="0 0 50 32" version="1.1" xmlns="http://www.w3.org/2000/svg" xmlns:xlink="http://www.w3.org/1999/xlink">
    <!-- Generator: Sketch 41 (35326) - http://www.bohemiancoding.com/sketch -->
    <title>macbook</title>
    <desc>Created with Sketch.</desc>
    <defs></defs>
    <g id="Page-1" stroke="none" stroke-width="1" fill="none" fill-rule="evenodd">
        <g id="macbook" fill="#000000">
            <path d="M48.6505827,25.8203465 L43.8386142,25.8203465 L43.8386142,2.77102362 C43.8386142,1.27962205 42.6247559,0.0661417323 41.1328504,0.0661417323 L8.46387402,0.0661417323 C6.97108661,0.0661417323 5.75672441,1.27949606 5.75672441,2.77102362 L5.75672441,25.8203465 L0.94488189,25.8203465 C0.422929134,25.8203465 0,26.2434016 0,26.7652283 C0,29.591811 2.29959055,31.8914016 5.12617323,31.8914016 L44.4691654,31.8914016 C47.295748,31.8912756 49.5953386,29.591685 49.5953386,26.7652283 C49.5954646,26.2434016 49.1725354,25.8203465 48.6505827,25.8203465 Z M7.6463622,6.20144882 L41.9487244,6.20144882 L41.9487244,21.5748031 L7.6463622,21.5748031 L7.6463622,6.20144882 Z M8.46387402,1.95590551 L41.1329764,1.95590551 C41.5828661,1.95590551 41.9489764,2.32151181 41.9489764,2.77102362 L41.9489764,4.31168504 L7.6463622,4.31168504 L7.6463622,2.77102362 C7.6463622,2.32919685 8.0207874,1.95590551 8.46387402,1.95590551 Z M7.6463622,23.4645669 L41.9487244,23.4645669 L41.9487244,25.8203465 L7.6463622,25.8203465 L7.6463622,23.4645669 Z M44.4692913,30.0017638 L5.12617323,30.0017638 C3.67017323,30.0017638 2.43565354,29.0352126 2.0303622,27.7102362 L6.70148031,27.7102362 L42.8936063,27.7102362 L47.5649764,27.7102362 C47.159685,29.0350866 45.9251654,30.0016378 44.4692913,30.0017638 Z" id="Shape"></path>
        </g>
    </g>
</svg>