<?xml version="1.0" encoding="UTF-8"?>
<svg width="80px" height="61px" viewBox="0 0 80 61" version="1.1" xmlns="http://www.w3.org/2000/svg" xmlns:xlink="http://www.w3.org/1999/xlink">
    <!-- Generator: Sketch 41 (35326) - http://www.bohemiancoding.com/sketch -->
    <title>wi-fi</title>
    <desc>Created with Sketch.</desc>
    <defs>
        <polygon id="path-1" points="0.06 60.94 79.484 60.94 79.484 0.92 0.06 0.92"></polygon>
    </defs>
    <g id="Page-1" stroke="none" stroke-width="1" fill="none" fill-rule="evenodd">
        <g id="wi-fi">
            <path d="M12.922,28.527 C11.266,30.184 11.266,32.881 12.922,34.554 C14.579,36.211 17.276,36.211 18.949,34.554 C30.418,23.085 49.083,23.085 60.551,34.554 C61.38,35.382 62.468,35.805 63.557,35.805 C64.645,35.805 65.733,35.382 66.562,34.554 C68.219,32.897 68.219,30.2 66.562,28.527 C51.779,13.729 27.705,13.729 12.922,28.527" id="Fill-1" fill="#000105"></path>
            <g id="Group-6">
                <mask id="mask-2" fill="white">
                    <use xlink:href="#path-1"></use>
                </mask>
                <g id="Clip-3"></g>
                <path d="M24.424,40.028 C22.767,41.685 22.767,44.382 24.424,46.055 C26.081,47.712 28.777,47.712 30.45,46.055 C35.567,40.922 43.917,40.922 49.034,46.055 C49.862,46.884 50.951,47.306 52.039,47.306 C53.128,47.306 54.216,46.884 55.045,46.055 C56.701,44.398 56.701,41.702 55.045,40.045 C46.614,31.581 32.871,31.581 24.424,40.028" id="Fill-2" fill="#000105" mask="url(#mask-2)"></path>
                <path d="M39.742,49.661 C42.873,49.661 45.411,52.2 45.411,55.331 C45.411,58.462 42.873,61 39.742,61 C36.611,61 34.073,58.462 34.073,55.331 C34.073,52.2 36.611,49.661 39.742,49.661" id="Fill-4" fill="#000105" mask="url(#mask-2)"></path>
                <path d="M78.242,16.831 C57.01,-4.384 22.474,-4.384 1.243,16.831 C-0.414,18.488 -0.414,21.185 1.243,22.858 C2.9,24.515 5.596,24.515 7.269,22.858 C25.171,4.94 54.313,4.94 72.231,22.858 C73.06,23.686 74.148,24.109 75.236,24.109 C76.325,24.109 77.413,23.686 78.242,22.858 C79.899,21.201 79.899,18.504 78.242,16.831" id="Fill-5" fill="#000105" mask="url(#mask-2)"></path>
            </g>
        </g>
    </g>
</svg>