<?xml version="1.0" encoding="UTF-8"?>
<svg width="61px" height="60px" viewBox="0 0 61 60" version="1.1" xmlns="http://www.w3.org/2000/svg" xmlns:xlink="http://www.w3.org/1999/xlink">
    <!-- Generator: Sketch 43.2 (39069) - http://www.bohemiancoding.com/sketch -->
    <title>Youtube</title>
    <desc>Created with Sketch.</desc>
    <defs></defs>
    <g id="Page-1" stroke="none" stroke-width="1" fill="none" fill-rule="evenodd">
        <g id="Colour" transform="translate(-316.000000, 0.000000)">
            <g id="Row-1">
                <g id="Youtube" transform="translate(316.000000, 0.000000)">
                    <path d="M0.456647399,30 C0.456647399,13.4314567 13.9075137,0 30.5,0 C47.0924863,0 60.5433526,13.4314567 60.5433526,30 C60.5433526,46.5685433 47.0924863,60 30.5,60 C13.9075137,60 0.456647399,46.5685433 0.456647399,30 Z" id="YouTube" fill="#CD332D"></path>
                    <path d="M44.0273399,30.4283125 C45.4685665,31.8623516 45.4841577,38.9418535 45.4841577,38.9827559 C45.4841577,38.9827559 45.4724821,46.0991133 44.0273399,47.5381387 C42.5920935,48.9691426 30.4942334,49 30.4942334,49 C30.4942334,49 18.3980819,48.9691426 16.9590623,47.5382109 C15.5199003,46.1040996 15.5159135,39.0364492 15.5159135,38.9827559 C15.5159135,38.941998 15.5198291,31.8623516 16.9590623,30.4283125 C18.3982243,28.9964414 30.4942334,28.9773633 30.4942334,28.9784473 C30.4942334,28.9773633 42.5920935,28.9964414 44.0273399,30.4283125 Z M22.4039572,44.8838945 L22.4039572,34.5990508 L24.4412098,34.5990508 L24.4411386,32.8515234 L18.3960885,32.8515234 L18.3960885,34.5990508 L20.4333411,34.5990508 L20.4333411,44.8838945 L22.4039572,44.8838945 Z M28.454845,43.9077305 L28.454845,44.8839668 L30.2019158,44.8839668 L30.201987,36.0062793 L28.4549162,36.0062793 L28.4549162,42.7503242 C28.2883251,42.942334 28.109916,43.099584 27.9118577,43.2250371 C27.7157928,43.3494063 27.5511239,43.4121328 27.4236176,43.4121328 C27.260871,43.4121328 27.1412671,43.3663164 27.064806,43.2707812 C26.9941116,43.1772695 26.9568778,43.0260176 26.9568778,42.8150742 L26.9568778,36.0061348 L25.2097358,36.0061348 L25.2097358,43.4281035 C25.2097358,43.9586055 25.3136773,44.3515137 25.5156512,44.6173789 C25.7233917,44.8839668 26.0233981,45.0133223 26.4293393,45.0133223 C26.7587483,45.0133223 27.0960597,44.9219063 27.4451179,44.7307637 C27.7960271,44.5435957 28.1294229,44.2699258 28.454845,43.9077305 Z M34.9432125,44.9962676 C35.4608552,44.9962676 35.8588228,44.8311406 36.1313488,44.4948887 C36.4056546,44.1594316 36.5430566,43.677709 36.543199,43.0498652 L36.543199,38.1238789 C36.543199,37.3973926 36.3980369,36.8431152 36.1039396,36.4640098 C35.8137578,36.0877949 35.3921542,35.8986758 34.8372065,35.8986758 C34.5668163,35.8986758 34.2979924,35.9684121 34.0314466,36.1096914 C33.768674,36.248875 33.5196417,36.4568555 33.2824274,36.7256113 L33.2824274,32.8515234 L31.5158498,32.8515234 L31.5158498,44.8839668 L33.2824274,44.8839668 L33.2824274,44.2033691 C33.5097459,44.4759551 33.7628362,44.6750469 34.029382,44.8043301 C34.2960702,44.9337578 34.6000633,44.9962676 34.9432125,44.9962676 Z M39.2606274,42.3303887 L39.2606274,40.657584 L42.6036267,40.6575117 L42.6036267,38.3945859 C42.6036267,37.5526191 42.3897636,36.9077207 41.9603999,36.4599629 C41.5310363,36.0111211 40.9152899,35.7863027 40.1153679,35.7863027 C39.3309658,35.7863027 38.6956415,36.0281035 38.2016348,36.5127168 C37.7074857,36.9963906 37.4584534,37.6273418 37.4584534,38.3945859 L37.4584534,42.3811914 C37.4584534,43.2368887 37.6859143,43.9078027 38.1350695,44.3942949 C38.5840824,44.8838945 39.201751,45.1257676 39.9841596,45.1257676 C40.8546337,45.1257676 41.5096785,44.8979863 41.9448799,44.4401836 C42.3859192,43.9774668 42.6036979,43.2918828 42.6036979,42.3812637 L42.6036979,41.9254121 L40.8056531,41.9254121 L40.8056531,42.3303887 C40.8056531,42.8529414 40.7449256,43.1892656 40.6311596,43.342541 C40.5154713,43.4957441 40.3134262,43.5724902 40.0233868,43.5724902 C39.7448807,43.5724902 39.5488157,43.483748 39.4312053,43.3036621 C39.3176528,43.1215527 39.2606274,42.7981641 39.2606274,42.3303887 Z M34.5588427,37.5386719 C34.6822198,37.6938262 34.7430896,37.9216797 34.7430896,38.221293 L34.7430896,42.8050293 C34.7430896,43.0905508 34.6901222,43.2915938 34.5903099,43.4160352 C34.4903552,43.5434395 34.3333752,43.606166 34.1196544,43.606166 C33.9707192,43.606166 33.8315373,43.5722012 33.6980508,43.5096191 C33.5628557,43.447832 33.4235315,43.3393613 33.2824274,43.1961309 L33.2824274,37.6651367 C33.40196,37.5427188 33.5215639,37.4521699 33.64309,37.3943574 C33.7647584,37.334666 33.8882067,37.3077832 34.0136484,37.3077832 C34.2488693,37.3077832 34.4313364,37.3853965 34.5588427,37.5386719 Z M39.4411011,37.5844883 C39.5627695,37.4182051 39.76275,37.3396523 40.0411138,37.3396523 C40.3058798,37.3396523 40.5038669,37.4182051 40.6214773,37.5844883 C40.7431458,37.7397871 40.8058666,38.0083984 40.8058666,38.379627 L40.8058666,39.2762266 L39.2607698,39.2762266 L39.2607698,38.379627 C39.2607698,38.0083262 39.319575,37.7395703 39.4411011,37.5844883 Z" id="Path" fill="#FFFFFF"></path>
                    <path d="M19.517802,12 L21.749126,12 L23.1883592,17.2982266 L23.3276123,17.2982266 L24.6960799,12 L26.9490466,12 L24.3707289,19.7552578 L24.3707289,25.2545273 L22.1549249,25.2545273 L22.1549249,20.0030566 L19.517802,12 Z M30.0392403,15.2294063 C30.8529026,15.2294063 31.5216164,15.4661484 32.0431747,15.9399219 C32.5607462,16.4126113 32.8215965,17.0226055 32.8215965,17.7680254 L32.8215965,22.8193926 C32.8215965,23.6552891 32.5667264,24.3101602 32.0589083,24.7868965 C31.54511,25.2625488 30.8451426,25.501459 29.9491103,25.501459 C29.0903118,25.501459 28.400169,25.2545996 27.8824551,24.7651445 C27.368728,24.2734492 27.1080201,23.6117129 27.1080201,22.7808027 L27.1078777,17.713248 C27.1078777,16.9539531 27.3725724,16.3508965 27.9039553,15.9030664 C28.433416,15.4542246 29.1470524,15.2294063 30.0392403,15.2294063 Z M29.9450523,23.8074805 C30.2118116,23.8074805 30.4215456,23.7319629 30.5803766,23.5836016 C30.7373567,23.4322773 30.8158112,23.2263926 30.8158112,22.9655859 L30.8158112,17.6385254 C30.8158112,17.4246914 30.7352921,17.2524824 30.5745388,17.1200918 C30.4137855,16.9887852 30.2039804,16.9240352 29.9450523,16.9240352 C29.7039223,16.9240352 29.5098508,16.9887852 29.358851,17.1200918 C29.2098445,17.2524824 29.1333834,17.4245469 29.1333834,17.6385254 L29.1333834,22.9656582 C29.1333122,23.2333301 29.2058577,23.4392871 29.3450396,23.5875762 C29.4842926,23.7348535 29.6843443,23.8074805 29.9450523,23.8074805 Z M38.0646599,25.2545996 L38.0646599,24.1748789 C37.7057771,24.5719063 37.3274587,24.8775176 36.9331931,25.0844141 C36.5410632,25.2923945 36.160609,25.3960234 35.7919016,25.3960234 C35.3332066,25.3960234 34.9939018,25.2496855 34.7626676,24.9591055 C34.5332133,24.6675137 34.417525,24.2316797 34.417525,23.6484238 L34.417525,15.4761211 L36.382161,15.4761211 L36.382161,22.9725957 C36.382161,23.2044961 36.4273684,23.3716465 36.5096672,23.4751309 C36.5900439,23.5787598 36.7253101,23.6313691 36.9096994,23.6313691 C37.0527969,23.6313691 37.2371862,23.5617773 37.458667,23.4254121 C37.6782255,23.2881074 37.8821928,23.112791 38.0645175,22.8979453 L38.0645175,15.4761211 L40.0332826,15.4761211 L40.0332826,25.2545996 L38.0646599,25.2545996 Z" id="Path" fill="#FFFFFF"></path>
                    <path d="M60.5433526,30 C60.5433526,46.5685433 47.0924863,60 30.5,60 C24.3462399,60 18.6246072,58.1525134 13.8611369,54.9827754 L48.2856952,5.81941103 C55.7194582,11.2806503 60.5433526,20.0777973 60.5433526,30 Z" id="reflec" fill-opacity="0.08" fill="#000000"></path>
                </g>
            </g>
        </g>
    </g>
</svg>