<?xml version="1.0" encoding="UTF-8"?>
<svg width="61px" height="60px" viewBox="0 0 61 60" version="1.1" xmlns="http://www.w3.org/2000/svg" xmlns:xlink="http://www.w3.org/1999/xlink">
    <!-- Generator: Sketch 43.2 (39069) - http://www.bohemiancoding.com/sketch -->
    <title>Apple</title>
    <desc>Created with Sketch.</desc>
    <defs></defs>
    <g id="Page-1" stroke="none" stroke-width="1" fill="none" fill-rule="evenodd">
        <g id="Colour" transform="translate(-79.000000, -239.000000)">
            <g id="Row-4" transform="translate(0.000000, 239.000000)">
                <g id="Apple" transform="translate(79.000000, 0.000000)">
                    <path d="M0.11416185,30 C0.11416185,13.4314567 13.5650282,0 30.1575145,0 C46.7500007,0 60.2008671,13.4314567 60.2008671,30 C60.2008671,46.5685433 46.7500007,60 30.1575145,60 C13.5650282,60 0.11416185,46.5685433 0.11416185,30 Z" fill="#333333"></path>
                    <path d="M38.2023946,29.4762161 C38.2411946,34.0142303 42.1129003,35.5238938 42.1575145,35.5445774 C42.123032,35.6496943 41.5376938,37.696661 40.1160843,39.8109517 C38.8867475,41.6390128 37.6142933,43.458402 35.6059639,43.4963706 C33.6307355,43.5341049 32.9965808,42.3048702 30.7400814,42.3048702 C28.4835821,42.3048702 27.7778144,43.4582848 25.9114446,43.5341049 C23.9733466,43.6072297 22.4972214,41.5601458 21.2593072,39.7378269 C18.725912,36.0146151 16.7922467,29.2135411 19.3915557,24.6227928 C20.6797257,22.3422721 22.9864808,20.8995224 25.4882142,20.8616709 C27.3917721,20.8264562 29.1892922,22.1669015 30.3512184,22.1669015 C31.5161381,22.1669015 33.6994701,20.5549335 35.9947118,20.7914758 C36.9558454,20.8323155 39.6527875,21.1855762 41.3841635,23.7642796 C41.2464639,23.8548067 38.165149,25.6768913 38.2023946,29.4762161 Z M34.4912425,18.3266783 C33.4614318,19.5940574 31.7729431,20.5810663 30.1188217,20.4496409 C29.8951175,18.7266966 30.7300073,16.9322683 31.683945,15.8079747 C32.7469716,14.5405956 34.5430525,13.5974147 36.0247617,13.5360086 C36.2141561,15.294109 35.5198442,17.0564281 34.4912425,18.3266783 Z" id="Shape" fill="#FFFFFF"></path>
                    <path d="M60.2008671,30 C60.2008671,46.5685433 46.7500007,60 30.1575145,60 C24.0037543,60 18.2821216,58.1525134 13.5186513,54.9827754 L47.9432097,5.81941103 C55.3769726,11.2806503 60.2008671,20.0777973 60.2008671,30 Z" id="reflec" fill-opacity="0.08" fill="#000000"></path>
                </g>
            </g>
        </g>
    </g>
</svg>