<?xml version="1.0" encoding="UTF-8"?>
<svg width="58px" height="61px" viewBox="0 0 58 61" version="1.1" xmlns="http://www.w3.org/2000/svg" xmlns:xlink="http://www.w3.org/1999/xlink">
    <!-- Generator: Sketch 41 (35326) - http://www.bohemiancoding.com/sketch -->
    <title>buttons</title>
    <desc>Created with Sketch.</desc>
    <defs>
        <polygon id="path-1" points="57.283 31.525 57.283 62 0.06 62 0.06 1.05 57.283 1.05 57.283 31.525"></polygon>
    </defs>
    <g id="Page-1" stroke="none" stroke-width="1" fill="none" fill-rule="evenodd">
        <g id="buttons" transform="translate(0.000000, -1.000000)">
            <mask id="mask-2" fill="white">
                <use xlink:href="#path-1"></use>
            </mask>
            <g id="Clip-2"></g>
            <path d="M36.067,7.042 L36.067,7.042 C36.067,7.48 36.354,7.858 36.771,7.992 C48.57,11.783 56.813,23.584 55.044,36.968 C53.46,48.951 43.704,58.488 31.691,59.829 C15.642,61.622 2,49.054 2,33.358 C2,21.613 9.64,11.623 20.21,8.087 C20.619,7.95 20.9,7.575 20.9,7.144 C20.9,6.47 20.243,5.973 19.604,6.186 C7.636,10.177 -0.847,21.858 0.067,35.342 C1.028,49.511 12.521,60.991 26.691,61.935 C43.363,63.045 57.283,49.797 57.283,33.358 C57.283,20.603 48.9,9.773 37.356,6.077 C36.716,5.873 36.067,6.371 36.067,7.042" id="Fill-1" fill="#000105" mask="url(#mask-2)"></path>
            <path d="M28.642,31.05 L28.642,1.05" id="Stroke-3" stroke="#000105" stroke-width="2" stroke-linecap="round" mask="url(#mask-2)"></path>
        </g>
    </g>
</svg>