<?xml version="1.0" encoding="UTF-8"?>
<svg width="40px" height="70px" viewBox="0 0 40 70" version="1.1" xmlns="http://www.w3.org/2000/svg" xmlns:xlink="http://www.w3.org/1999/xlink">
    <!-- Generator: Sketch 41 (35326) - http://www.bohemiancoding.com/sketch -->
    <title>dead battery</title>
    <desc>Created with Sketch.</desc>
    <defs></defs>
    <g id="Page-1" stroke="none" stroke-width="1" fill="none" fill-rule="evenodd">
        <g id="dead-battery" fill="#000105">
            <path d="M5.758,8.198 C3.535,8.198 1.727,9.995 1.727,12.205 L1.727,64.276 C1.727,66.485 3.535,68.283 5.758,68.283 L34.243,68.283 C36.465,68.283 38.274,66.485 38.274,64.276 L38.274,12.205 C38.274,9.995 36.465,8.198 34.243,8.198 L5.758,8.198 Z M34.243,70 L5.758,70 C2.583,70 0,67.432 0,64.276 L0,12.205 C0,9.049 2.583,6.481 5.758,6.481 L34.243,6.481 C37.418,6.481 40,9.049 40,12.205 L40,64.276 C40,67.432 37.418,70 34.243,70 L34.243,70 Z" id="Fill-1"></path>
            <path d="M1.225,18.612 L38.776,18.612" id="Fill-2"></path>
            <path d="M38.776,19.612 L1.225,19.612 C0.673,19.612 0.225,19.165 0.225,18.612 C0.225,18.06 0.673,17.612 1.225,17.612 L38.776,17.612 C39.328,17.612 39.776,18.06 39.776,18.612 C39.776,19.165 39.328,19.612 38.776,19.612" id="Fill-3"></path>
            <path d="M13.625,6.175 L26.375,6.175 L26.375,4.759 C26.375,3.748 25.552,2.925 24.541,2.925 L15.46,2.925 C14.448,2.925 13.625,3.748 13.625,4.759 L13.625,6.175 Z M28.375,8.175 L11.625,8.175 L11.625,4.759 C11.625,2.645 13.345,0.925 15.46,0.925 L24.541,0.925 C26.655,0.925 28.375,2.645 28.375,4.759 L28.375,8.175 L28.375,8.175 Z" id="Fill-4"></path>
            <path d="M4.32,65.05 L35.653,65.05" id="Fill-5"></path>
            <path d="M35.653,66.05 L4.319,66.05 C3.767,66.05 3.319,65.602 3.319,65.05 C3.319,64.497 3.767,64.05 4.319,64.05 L35.653,64.05 C36.205,64.05 36.653,64.497 36.653,65.05 C36.653,65.602 36.205,66.05 35.653,66.05" id="Fill-6"></path>
            <path d="M4.32,61.05 L35.653,61.05" id="Fill-7"></path>
            <path d="M35.653,62.05 L4.319,62.05 C3.767,62.05 3.319,61.603 3.319,61.05 C3.319,60.497 3.767,60.05 4.319,60.05 L35.653,60.05 C36.205,60.05 36.653,60.497 36.653,61.05 C36.653,61.603 36.205,62.05 35.653,62.05" id="Fill-8"></path>
            <path d="M4.32,57.05 L35.653,57.05" id="Fill-9"></path>
            <path d="M35.653,58.05 L4.319,58.05 C3.767,58.05 3.319,57.603 3.319,57.05 C3.319,56.497 3.767,56.05 4.319,56.05 L35.653,56.05 C36.205,56.05 36.653,56.497 36.653,57.05 C36.653,57.603 36.205,58.05 35.653,58.05" id="Fill-10"></path>
        </g>
    </g>
</svg>