<?xml version="1.0" encoding="UTF-8"?>
<svg width="60px" height="74px" viewBox="0 0 60 74" version="1.1" xmlns="http://www.w3.org/2000/svg" xmlns:xlink="http://www.w3.org/1999/xlink">
    <!-- Generator: Sketch 41 (35326) - http://www.bohemiancoding.com/sketch -->
    <title>microphone</title>
    <desc>Created with Sketch.</desc>
    <defs>
        <polygon id="path-1" points="59.966 66.069 59.966 0.999 0 0.999 0 66.069 59.966 66.069"></polygon>
    </defs>
    <g id="Page-1" stroke="none" stroke-width="1" fill="none" fill-rule="evenodd">
        <g id="microphone" transform="translate(0.000000, -1.000000)">
            <path d="M49.759,36.724 C49.055,36.724 48.483,37.294 48.483,38 L48.483,45.655 C48.483,55.505 40.471,63.517 30.621,63.517 C20.771,63.517 12.759,55.505 12.759,45.655 L12.759,38 C12.759,37.294 12.187,36.724 11.483,36.724 C10.779,36.724 10.207,37.294 10.207,38 L10.207,45.655 C10.207,56.481 18.684,65.34 29.345,66.004 L29.345,72.448 L22.966,72.448 C22.262,72.448 21.69,73.019 21.69,73.724 C21.69,74.43 22.262,75 22.966,75 L38.276,75 C38.981,75 39.552,74.43 39.552,73.724 C39.552,73.019 38.981,72.448 38.276,72.448 L31.897,72.448 L31.897,66.004 C42.558,65.34 51.035,56.479 51.035,45.655 L51.035,38 C51.035,37.294 50.464,36.724 49.759,36.724" id="Fill-1" fill="#000105"></path>
            <g id="Group-7">
                <mask id="mask-2" fill="white">
                    <use xlink:href="#path-1"></use>
                </mask>
                <g id="Clip-3"></g>
                <path d="M19.138,15.034 C19.138,8.702 24.29,3.551 30.621,3.551 C36.952,3.551 42.104,8.702 42.104,15.034 L42.104,45.655 C42.104,51.987 36.952,57.138 30.621,57.138 C24.29,57.138 19.138,51.987 19.138,45.655 L19.138,15.034 Z M30.621,59.689 C38.359,59.689 44.656,53.393 44.656,45.655 L44.656,15.034 C44.656,7.296 38.359,0.999 30.621,0.999 C22.883,0.999 16.587,7.296 16.587,15.034 L16.587,45.655 C16.587,53.393 22.883,59.689 30.621,59.689 L30.621,59.689 Z" id="Fill-2" fill="#000105" mask="url(#mask-2)"></path>
                <path d="M59.592,6.477 C59.093,5.978 58.287,5.978 57.788,6.477 L46.306,17.96 C45.807,18.458 45.807,19.265 46.306,19.764 C46.554,20.012 46.881,20.138 47.208,20.138 C47.534,20.138 47.861,20.012 48.11,19.764 L59.592,8.281 C60.091,7.782 60.091,6.976 59.592,6.477" id="Fill-4" fill="#000105" mask="url(#mask-2)"></path>
                <path d="M40.454,27.419 C40.953,26.92 40.953,26.114 40.454,25.615 C39.956,25.116 39.149,25.116 38.65,25.615 L20.788,43.477 C20.289,43.976 20.289,44.782 20.788,45.281 C21.037,45.53 21.364,45.655 21.69,45.655 C22.017,45.655 22.343,45.53 22.592,45.281 L40.454,27.419" id="Fill-5" fill="#000105" mask="url(#mask-2)"></path>
                <path d="M9.305,54.96 L0.374,63.891 C-0.125,64.39 -0.125,65.196 0.374,65.695 C0.623,65.944 0.95,66.069 1.276,66.069 C1.603,66.069 1.929,65.944 2.178,65.695 L11.109,56.764 C11.608,56.265 11.608,55.459 11.109,54.96 C10.611,54.461 9.804,54.461 9.305,54.96" id="Fill-6" fill="#000105" mask="url(#mask-2)"></path>
            </g>
        </g>
    </g>
</svg>