<?xml version="1.0" encoding="UTF-8"?>
<svg width="56px" height="75px" viewBox="0 0 56 75" version="1.1" xmlns="http://www.w3.org/2000/svg" xmlns:xlink="http://www.w3.org/1999/xlink">
    <!-- Generator: Sketch 41 (35326) - http://www.bohemiancoding.com/sketch -->
    <title>touch</title>
    <desc>Created with Sketch.</desc>
    <defs>
        <polygon id="path-1" points="55.299 35.3175 55.299 70 0.06 70 0.06 0.635 55.299 0.635 55.299 35.3175"></polygon>
    </defs>
    <g id="Page-1" stroke="none" stroke-width="1" fill="none" fill-rule="evenodd">
        <g id="touch">
            <path d="M12.245,29.554 L12.245,26.684 C9.375,24.292 7.461,20.704 7.461,16.638 C7.461,9.462 13.441,3.482 20.617,3.482 C27.792,3.482 33.772,9.462 33.772,16.638 C33.772,19.747 32.576,22.857 30.663,25.009 C31.619,25.009 32.337,25.249 33.293,25.488 C35.207,22.857 36.164,19.747 36.164,16.399 C36.164,7.788 29.227,0.851 20.617,0.851 C12.006,0.851 5.069,7.788 5.069,16.398 C5.069,21.9 7.939,26.684 12.245,29.554" id="Fill-1" fill="#000105"></path>
            <g id="Group-5" transform="translate(0.000000, 5.000000)">
                <mask id="mask-2" fill="white">
                    <use xlink:href="#path-1"></use>
                </mask>
                <g id="Clip-3"></g>
                <path d="M31.38,11.398 C31.38,5.419 26.596,0.635 20.617,0.635 C14.637,0.635 9.853,5.419 9.853,11.398 C9.853,14.03 10.81,16.421 12.245,18.096 L12.245,11.398 C12.245,6.854 16.072,3.027 20.617,3.027 C25.161,3.027 28.988,6.854 28.988,11.398 L28.988,18.096 C30.423,16.421 31.38,14.03 31.38,11.398" id="Fill-2" fill="#000105" mask="url(#mask-2)"></path>
                <path d="M52.907,40.58 L52.907,49.669 C52.907,58.997 44.775,67.608 34.968,67.608 C25.879,67.608 20.617,62.585 16.311,55.649 C6.983,39.862 0.285,32.686 2.916,30.055 C5.548,27.424 12.006,33.165 17.029,38.427 L17.029,11.398 C17.029,9.485 18.703,7.811 20.617,7.811 C22.53,7.811 24.204,9.485 24.204,11.398 L24.204,36.513 L26.596,36.513 L26.596,28.142 C26.596,26.228 28.271,24.554 30.184,24.554 C32.098,24.554 33.772,26.228 33.772,28.142 L33.772,34.121 L36.164,34.121 L36.164,30.534 C36.164,28.62 37.838,26.946 39.752,26.946 C41.665,26.946 43.34,28.62 43.34,30.534 L43.34,36.513 L45.732,36.513 L45.732,35.317 C45.732,33.404 47.406,31.729 49.32,31.729 C51.233,31.729 52.908,33.404 52.908,35.317 L52.907,40.58 Z M49.319,29.338 C47.884,29.338 46.688,29.816 45.731,30.534 C45.731,27.185 43.1,24.554 39.752,24.554 C38.317,24.554 36.881,25.032 35.685,25.989 C34.729,23.597 32.576,22.162 30.184,22.162 C28.749,22.162 27.553,22.64 26.596,23.358 L26.596,11.398 C26.596,8.05 23.965,5.419 20.617,5.419 C17.268,5.419 14.637,8.05 14.637,11.398 L14.637,32.686 C9.853,28.381 4.591,25.032 1.242,28.381 C-3.542,33.165 6.504,42.493 14.158,56.605 C19.66,66.412 27.314,70 34.968,70 C46.21,70 55.299,60.911 55.299,49.669 L55.299,35.317 C55.299,31.969 52.668,29.338 49.319,29.338 L49.319,29.338 Z" id="Fill-4" fill="#000105" mask="url(#mask-2)"></path>
            </g>
        </g>
    </g>
</svg>