<?xml version="1.0" encoding="UTF-8"?>
<svg width="84px" height="74px" viewBox="0 0 84 74" version="1.1" xmlns="http://www.w3.org/2000/svg" xmlns:xlink="http://www.w3.org/1999/xlink">
    <!-- Generator: Sketch 41 (35326) - http://www.bohemiancoding.com/sketch -->
    <title>vibration</title>
    <desc>Created with Sketch.</desc>
    <defs></defs>
    <g id="Page-1" stroke="none" stroke-width="1" fill="none" fill-rule="evenodd">
        <g id="vibration" transform="translate(0.000000, -1.000000)" fill="#000105">
            <path d="M25.18,2.999 C22.605,2.999 20.51,5.094 20.51,7.668 L20.51,68.331 C20.51,70.905 22.605,73 25.18,73 L58.175,73 C60.75,73 62.844,70.905 62.844,68.331 L62.844,7.668 C62.844,5.094 60.75,2.999 58.175,2.999 L25.18,2.999 Z M58.175,75 L25.18,75 C21.502,75 18.51,72.009 18.51,68.331 L18.51,7.668 C18.51,3.991 21.502,0.999 25.18,0.999 L58.175,0.999 C61.853,0.999 64.844,3.991 64.844,7.668 L64.844,68.331 C64.844,72.009 61.853,75 58.175,75 L58.175,75 Z" id="Fill-1"></path>
            <path d="M41.678,60.967 C40.069,60.967 38.761,62.275 38.761,63.883 C38.761,65.491 40.069,66.8 41.678,66.8 C43.286,66.8 44.594,65.491 44.594,63.883 C44.594,62.275 43.286,60.967 41.678,60.967 Z M41.678,68.8 C38.967,68.8 36.761,66.594 36.761,63.883 C36.761,61.172 38.967,58.967 41.678,58.967 C44.388,58.967 46.594,61.172 46.594,63.883 C46.594,66.594 44.388,68.8 41.678,68.8 L41.678,68.8 Z" id="Fill-2"></path>
            <path d="M45.761,10.216 L37.594,10.216 C37.042,10.216 36.594,9.769 36.594,9.216 C36.594,8.664 37.042,8.216 37.594,8.216 L45.761,8.216 C46.313,8.216 46.761,8.664 46.761,9.216 C46.761,9.769 46.313,10.216 45.761,10.216" id="Fill-3"></path>
            <path d="M33.165,27.758 L51.665,43.425" id="Fill-4"></path>
            <path d="M51.664,44.425 C51.436,44.425 51.206,44.347 51.018,44.188 L32.518,28.521 C32.097,28.164 32.045,27.533 32.402,27.111 C32.758,26.69 33.389,26.637 33.811,26.995 L52.311,42.662 C52.733,43.019 52.785,43.65 52.428,44.071 C52.23,44.305 51.948,44.425 51.664,44.425" id="Fill-5"></path>
            <path d="M51.665,27.758 L33.165,43.425" id="Fill-6"></path>
            <g id="Group-12" transform="translate(0.000000, 25.000000)">
                <path d="M33.165,19.425 C32.882,19.425 32.599,19.305 32.402,19.071 C32.045,18.65 32.097,18.019 32.518,17.662 L51.018,1.995 C51.44,1.639 52.071,1.691 52.428,2.111 C52.785,2.533 52.733,3.164 52.311,3.521 L33.811,19.188 C33.623,19.347 33.394,19.425 33.165,19.425" id="Fill-7"></path>
                <path d="M73.638,0.615 C73.266,0.489 72.862,0.688 72.736,1.06 C72.61,1.431 72.809,1.836 73.181,1.962 C78.229,3.676 81.62,8.405 81.62,13.729 C81.62,19.048 78.235,23.777 73.197,25.496 C72.826,25.623 72.627,26.027 72.754,26.399 C72.855,26.694 73.131,26.88 73.427,26.88 C73.503,26.88 73.58,26.868 73.656,26.842 C79.269,24.928 83.041,19.658 83.041,13.73 C83.042,7.795 79.263,2.525 73.638,0.615" id="Fill-9"></path>
                <path d="M76.644,13.728 C76.644,9.483 73.794,5.694 69.714,4.514 C69.335,4.407 68.943,4.622 68.834,5 C68.725,5.377 68.942,5.772 69.32,5.88 C72.796,6.885 75.223,10.112 75.223,13.728 C75.223,17.344 72.796,20.572 69.32,21.576 C68.943,21.685 68.725,22.079 68.834,22.456 C68.924,22.767 69.208,22.97 69.517,22.97 C69.582,22.97 69.649,22.961 69.714,22.942 C73.795,21.762 76.644,17.973 76.644,13.728" id="Fill-10"></path>
                <path d="M0,13.73 C0,19.658 3.772,24.928 9.385,26.842 C9.461,26.868 9.538,26.88 9.614,26.88 C9.91,26.88 10.186,26.694 10.287,26.399 C10.414,26.027 10.215,25.623 9.844,25.496 C4.806,23.777 1.421,19.048 1.421,13.729 C1.421,8.405 4.812,3.676 9.86,1.962 C10.232,1.836 10.431,1.431 10.305,1.06 C10.179,0.688 9.775,0.489 9.403,0.615 C3.778,2.525 -0.001,7.795 0,13.73" id="Fill-11"></path>
            </g>
            <path d="M13.327,47.942 C13.392,47.961 13.459,47.97 13.524,47.97 C13.833,47.97 14.117,47.767 14.207,47.456 C14.316,47.079 14.098,46.685 13.721,46.576 C10.245,45.572 7.818,42.344 7.818,38.728 C7.818,35.112 10.245,31.885 13.721,30.88 C14.099,30.772 14.316,30.377 14.207,30 C14.098,29.622 13.706,29.407 13.327,29.514 C9.247,30.694 6.397,34.483 6.397,38.728 C6.397,42.973 9.246,46.762 13.327,47.942" id="Fill-13"></path>
        </g>
    </g>
</svg>