<?xml version="1.0" encoding="UTF-8"?>
<svg width="58px" height="51px" viewBox="0 0 58 51" version="1.1" xmlns="http://www.w3.org/2000/svg" xmlns:xlink="http://www.w3.org/1999/xlink">
    <!-- Generator: Sketch 41 (35326) - http://www.bohemiancoding.com/sketch -->
    <title>volume</title>
    <desc>Created with Sketch.</desc>
    <defs>
        <polygon id="path-1" points="57.283 0.219517095 57.283 51 0.06 51 0.06 0.219517095"></polygon>
    </defs>
    <g id="Page-1" stroke="none" stroke-width="1" fill="none" fill-rule="evenodd">
        <g id="volume">
            <mask id="mask-2" fill="white">
                <use xlink:href="#path-1"></use>
            </mask>
            <g id="Clip-2"></g>
            <path d="M30.908,47.515 C30.908,47.991 30.668,48.409 30.269,48.635 C30.098,48.731 29.664,48.917 29.165,48.664 L14.35,35.055 L14.35,30.026 C14.35,29.415 13.857,28.922 13.246,28.922 C12.636,28.922 12.142,29.415 12.142,30.026 L12.142,34.437 L2.208,34.441 L2.208,15.675 L12.142,15.675 L12.142,20.091 C12.142,20.701 12.636,21.195 13.246,21.195 C13.857,21.195 14.35,20.701 14.35,20.091 L14.35,15.084 L29.147,2.566 C29.656,2.299 30.097,2.489 30.269,2.586 C30.668,2.812 30.908,3.231 30.908,3.705 L30.908,47.515 Z M31.354,0.663 C30.277,0.054 29.001,0.074 27.943,0.712 C27.892,0.741 27.844,0.777 27.799,0.814 L12.842,13.468 L1.104,13.468 C0.493,13.468 0,13.961 0,14.572 L0,35.545 C0,35.839 0.116,36.119 0.323,36.325 C0.531,36.532 0.81,36.649 1.104,36.649 L12.816,36.643 L27.765,50.375 C27.82,50.426 27.88,50.47 27.943,50.508 C28.486,50.835 29.088,51 29.689,51 C30.26,50.999 30.83,50.852 31.354,50.556 C32.457,49.934 33.116,48.797 33.116,47.515 L33.116,3.705 C33.116,2.424 32.457,1.287 31.354,0.663 L31.354,0.663 Z" id="Fill-1" fill="#000105" mask="url(#mask-2)"></path>
            <path d="M37.783,17.777 L56.283,33.444" id="Fill-3" fill="#000105" mask="url(#mask-2)"></path>
            <path d="M56.283,34.444 C56.054,34.444 55.825,34.367 55.637,34.207 L37.137,18.54 C36.715,18.183 36.663,17.553 37.02,17.131 C37.376,16.709 38.007,16.657 38.43,17.014 L56.93,32.681 C57.351,33.038 57.403,33.669 57.046,34.091 C56.849,34.324 56.566,34.444 56.283,34.444" id="Fill-4" fill="#000105" mask="url(#mask-2)"></path>
            <path d="M56.283,17.777 L37.783,33.444" id="Fill-5" fill="#000105" mask="url(#mask-2)"></path>
            <path d="M37.784,34.444 C37.5,34.444 37.218,34.324 37.02,34.091 C36.663,33.669 36.715,33.038 37.137,32.681 L55.637,17.014 C56.059,16.658 56.689,16.71 57.046,17.131 C57.403,17.553 57.351,18.183 56.93,18.54 L38.43,34.207 C38.242,34.367 38.012,34.444 37.784,34.444" id="Fill-6" fill="#000105" mask="url(#mask-2)"></path>
        </g>
    </g>
</svg>