<?xml version="1.0" encoding="UTF-8"?>
<svg width="44px" height="61px" viewBox="0 0 44 61" version="1.1" xmlns="http://www.w3.org/2000/svg" xmlns:xlink="http://www.w3.org/1999/xlink">
    <!-- Generator: Sketch 41 (35326) - http://www.bohemiancoding.com/sketch -->
    <title>water</title>
    <desc>Created with Sketch.</desc>
    <defs>
        <polygon id="path-1" points="0.06 60.94 43.483 60.94 43.483 0.92 0.06 0.92"></polygon>
    </defs>
    <g id="Page-1" stroke="none" stroke-width="1" fill="none" fill-rule="evenodd">
        <g id="water">
            <g id="Group-3">
                <mask id="mask-2" fill="white">
                    <use xlink:href="#path-1"></use>
                </mask>
                <g id="Clip-2"></g>
                <path d="M21.435,58.55 C10.411,58.55 2.45,50.282 2.45,38.952 C2.45,31.48 7.349,24.315 12.494,16.782 C15.25,12.74 18.128,8.514 20.394,4.043 C20.701,3.431 21.252,3.369 21.497,3.369 C21.742,3.369 22.293,3.431 22.599,4.043 C24.926,8.575 27.927,12.862 30.867,17.027 C36.073,24.499 41.034,31.542 41.034,38.952 C41.034,50.099 32.582,58.55 21.435,58.55 Z M32.827,15.618 C29.948,11.576 27.009,7.35 24.743,2.941 C24.13,1.716 22.844,0.92 21.497,0.92 C20.149,0.92 18.863,1.655 18.251,2.941 C16.046,7.289 13.229,11.392 10.534,15.373 C5.083,23.274 0,30.684 0,38.952 C0,51.752 9.003,61 21.435,61 C33.99,61 43.483,51.507 43.483,38.952 C43.483,30.746 38.278,23.396 32.827,15.618 L32.827,15.618 Z" id="Fill-1" fill="#000105" mask="url(#mask-2)"></path>
            </g>
            <path d="M15.678,18.925 C15.127,18.558 14.331,18.681 13.964,19.232 C11.881,22.416 9.432,26.091 7.655,29.827 C7.349,30.439 7.655,31.174 8.268,31.48 C8.452,31.542 8.635,31.603 8.819,31.603 C9.248,31.603 9.738,31.358 9.922,30.929 C11.636,27.316 13.964,23.764 16.046,20.702 C16.413,20.089 16.23,19.354 15.678,18.925" id="Fill-4" fill="#000105"></path>
            <path d="M7.717,32.889 C7.104,32.644 6.369,32.95 6.124,33.563 C5.879,34.236 5.634,34.91 5.512,35.584 C5.389,36.258 5.818,36.87 6.492,37.054 L6.737,37.054 C7.288,37.054 7.839,36.625 7.962,36.074 C8.084,35.523 8.207,34.971 8.452,34.42 C8.697,33.869 8.39,33.195 7.717,32.889" id="Fill-5" fill="#000105"></path>
        </g>
    </g>
</svg>