<?xml version="1.0" encoding="UTF-8"?>
<svg width="86px" height="68px" viewBox="0 0 86 68" version="1.1" xmlns="http://www.w3.org/2000/svg" xmlns:xlink="http://www.w3.org/1999/xlink">
    <!-- Generator: Sketch 41 (35326) - http://www.bohemiancoding.com/sketch -->
    <title>wifi</title>
    <desc>Created with Sketch.</desc>
    <defs>
        <polygon id="path-1" points="85.666 32.4905 85.666 0.526 0.06 0.526 0.06 32.4905 85.666 32.4905"></polygon>
    </defs>
    <g id="Page-1" stroke="none" stroke-width="1" fill="none" fill-rule="evenodd">
        <g id="wifi">
            <path d="M42.834,55.666 C40.15,55.666 37.967,57.85 37.967,60.534 C37.967,63.218 40.15,65.404 42.834,65.404 C45.519,65.404 47.702,63.218 47.702,60.534 C47.702,57.85 45.519,55.666 42.834,55.666 Z M42.834,68 C38.72,68 35.371,64.651 35.371,60.534 C35.371,56.419 38.72,53.071 42.834,53.071 C46.949,53.071 50.298,56.419 50.298,60.534 C50.298,64.651 46.949,68 42.834,68 L42.834,68 Z" id="Fill-1" fill="#000105"></path>
            <path d="M59.981,44.688 C59.649,44.688 59.316,44.561 59.062,44.309 C54.727,39.974 48.963,37.585 42.832,37.585 C36.703,37.585 30.937,39.974 26.604,44.309 C26.098,44.815 25.275,44.815 24.769,44.309 C24.263,43.803 24.263,42.98 24.769,42.474 C29.595,37.648 36.009,34.989 42.832,34.989 C49.657,34.989 56.071,37.645 60.897,42.474 C61.403,42.98 61.403,43.803 60.897,44.309 C60.645,44.561 60.313,44.688 59.981,44.688" id="Fill-2" fill="#000105"></path>
            <g id="Group-6">
                <mask id="mask-2" fill="white">
                    <use xlink:href="#path-1"></use>
                </mask>
                <g id="Clip-4"></g>
                <path d="M72.177,32.49 C71.844,32.49 71.512,32.362 71.258,32.111 C55.586,16.436 30.083,16.438 14.411,32.111 C13.905,32.617 13.082,32.617 12.576,32.111 C12.069,31.604 12.069,30.781 12.576,30.275 C29.26,13.588 56.409,13.591 73.096,30.275 C73.602,30.781 73.602,31.604 73.096,32.111 C72.841,32.362 72.509,32.49 72.177,32.49" id="Fill-3" fill="#000105" mask="url(#mask-2)"></path>
                <path d="M84.37,20.296 C84.038,20.296 83.705,20.169 83.451,19.917 C61.058,-2.473 24.613,-2.478 2.215,19.917 C1.709,20.423 0.886,20.423 0.38,19.917 C-0.127,19.411 -0.127,18.588 0.38,18.082 C23.79,-5.329 61.879,-5.324 85.286,18.082 C85.793,18.588 85.793,19.411 85.286,19.917 C85.035,20.169 84.702,20.296 84.37,20.296" id="Fill-5" fill="#000105" mask="url(#mask-2)"></path>
            </g>
        </g>
    </g>
</svg>