<?xml version="1.0" encoding="UTF-8"?>
<svg width="250px" height="305px" viewBox="0 0 250 305" version="1.1" xmlns="http://www.w3.org/2000/svg" xmlns:xlink="http://www.w3.org/1999/xlink">
    <!-- Generator: Sketch 41 (35326) - http://www.bohemiancoding.com/sketch -->
    <title>Logo (color)</title>
    <desc>Created with Sketch.</desc>
    <defs>
        <linearGradient x1="49.9795764%" y1="99.999957%" x2="49.9795764%" y2="0.00855178341%" id="linearGradient-1">
            <stop stop-color="#3B92E2" offset="0%"></stop>
            <stop stop-color="#64BBF4" offset="100%"></stop>
        </linearGradient>
        <linearGradient x1="50.0483734%" y1="99.9379542%" x2="50.0483734%" y2="-1.81776581e-09%" id="linearGradient-2">
            <stop stop-color="#3B92E2" offset="0%"></stop>
            <stop stop-color="#64BBF4" offset="100%"></stop>
        </linearGradient>
    </defs>
    <g id="Page-1" stroke="none" stroke-width="1" fill="none" fill-rule="evenodd">
        <g id="Logo-(color)">
            <path d="M12.9,112.1 C-12.9,156.9 3.5,224.8 32,265.9 C46.2,286.5 60.6,305 80.4,305 L81.5,305 C90.8,304.6 97.5,301.8 104,299 C111.3,295.9 118.8,292.7 130.6,292.7 C141.8,292.7 149,295.8 155.9,298.8 C162.7,301.8 169.8,304.8 180.2,304.6 C202.4,304.2 216.1,284.2 228.1,266.7 C240.7,248.3 247,230.5 249.1,223.7 L249.2,223.4 C249.6,222.2 249,220.9 247.9,220.3 C247.9,220.3 247.8,220.2 247.7,220.2 C243.8,218.6 209.4,203.4 209.1,161.8 C208.8,128.1 234.9,110.2 240.1,107 L240.3,106.8 C240.9,106.4 241.3,105.9 241.4,105.2 C241.5,104.5 241.4,103.9 241,103.3 C223,76.9 195.4,73 184.3,72.5 C182.7,72.3 181,72.3 179.4,72.3 C166.3,72.3 153.8,77.2 143.8,81.2 C136.9,83.9 130.9,86.3 126.7,86.3 C122.1,86.3 116,83.9 109.1,81.1 C99.8,77.4 89.2,73.2 78,73.2 L77.2,73.2 C51,73.6 26.4,88.5 12.9,112.1 Z" id="XMLID_229_" fill="url(#linearGradient-1)"></path>
            <path d="M184.2,0 C168.4,0.6 149.5,10.3 138.2,23.6 C128.6,34.7 119.2,53.3 121.7,72 C121.9,73.2 122.8,74.1 124,74.2 C125.1,74.3 126.1,74.3 127.2,74.3 C142.6,74.3 159.2,65.8 170.6,52 C182.6,37.5 188.6,18.9 186.8,2.2 C186.7,0.9 185.5,0 184.2,0 Z" id="XMLID_2_" fill="url(#linearGradient-2)"></path>
            <g id="Group" transform="translate(45.000000, 125.000000)" fill="#FFFFFF">
                <path d="M84.9,90.8 C84.9,90.3 84.7,89.8 84.4,89.3 C81.7,86.1 79.5,83.3 77.9,80.9 C78.9,78.9 79.7,77.1 80.2,75.4 L91.5,73.7 C91.9,73.7 92.3,73.4 92.7,72.9 C93,72.4 93.2,72 93.2,71.5 L93.2,58 C93.2,57.5 93,57 92.7,56.6 C92.4,56.2 91.9,55.9 91.5,55.8 L80.5,54.1 C80,52.5 79.1,50.5 78,48.1 C78.7,47 79.8,45.6 81.3,43.7 C82.8,41.9 83.8,40.6 84.4,39.8 C84.7,39.3 84.9,38.9 84.9,38.4 C84.9,37.1 81.4,33.2 74.4,26.8 C73.9,26.4 73.4,26.2 72.9,26.2 C72.3,26.2 71.8,26.4 71.4,26.7 L62.8,33.2 C60.8,32.2 59,31.4 57.3,30.9 L55.6,19.8 C55.6,19.3 55.3,18.9 54.9,18.5 C54.5,18.1 54,18 53.4,18 L39.9,18 C38.8,18 38.1,18.6 37.7,19.7 C37.1,21.9 36.6,25.7 36,30.9 C33.9,31.6 32.1,32.4 30.4,33.2 L22,26.7 C21.5,26.4 21,26.2 20.5,26.2 C19.6,26.2 17.7,27.6 14.8,30.5 C11.9,33.4 9.9,35.5 8.8,37 C8.5,37.4 8.3,37.9 8.3,38.5 C8.3,38.9 8.5,39.4 8.8,40 C11.5,43.2 13.7,46 15.3,48.4 C14.3,50.4 13.5,52.2 13,53.9 L1.7,55.6 C1.3,55.6 0.9,55.9 0.5,56.4 C0.2,56.9 0,57.3 0,57.8 L0,71.2 C0,71.7 0.2,72.2 0.5,72.6 C0.8,73 1.3,73.2 1.7,73.3 L12.7,75 C13.3,76.8 14.1,78.8 15.2,81 C14.4,82.1 13.3,83.5 11.8,85.4 C10.3,87.3 9.3,88.6 8.8,89.3 C8.5,89.8 8.3,90.2 8.3,90.7 C8.3,92 11.8,95.9 18.8,102.3 C19.3,102.7 19.8,102.9 20.3,102.9 C20.9,102.9 21.4,102.7 21.8,102.4 L30.4,95.9 C32.4,96.9 34.2,97.7 35.9,98.2 L37.6,109.3 C37.6,109.8 37.9,110.2 38.3,110.6 C38.7,111 39.2,111.1 39.8,111.1 L53.3,111.1 C54.4,111.1 55.1,110.5 55.5,109.4 C56.1,107.1 56.6,103.4 57.2,98.1 C59.1,97.5 61,96.8 62.8,95.8 L71.2,102.3 C71.7,102.6 72.2,102.8 72.7,102.8 C73.6,102.8 75.5,101.4 78.4,98.5 C81.3,95.6 83.3,93.4 84.4,92 C84.7,91.8 84.9,91.3 84.9,90.8 Z M59.8,77.8 C56.2,81.4 51.8,83.2 46.6,83.2 C41.5,83.2 37.1,81.4 33.4,77.8 C29.8,74.2 27.9,69.8 27.9,64.6 C27.9,59.5 29.7,55.1 33.4,51.4 C37,47.8 41.4,45.9 46.6,45.9 C51.7,45.9 56.1,47.7 59.8,51.4 C63.4,55 65.3,59.4 65.3,64.6 C65.2,69.8 63.4,74.2 59.8,77.8 Z" id="Shape"></path>
                <path d="M128.8,94.5 C128.2,93.1 127.4,91.8 126.6,90.7 C129.1,85.2 130.3,81.9 130.3,80.7 C130.3,80.5 130.2,80.3 130,80.2 C124.2,76.8 121.2,75.1 121,75.1 L120.6,75.2 C118.6,77.2 116.4,79.9 113.9,83.3 C112.9,83.2 112.2,83.2 111.7,83.2 C111.2,83.2 110.5,83.2 109.5,83.3 C108.8,82.3 107.6,80.6 105.7,78.4 C103.9,76.1 102.7,75 102.4,75 C102.3,75 101.6,75.4 100.2,76.2 C98.8,77 97.4,77.8 95.9,78.7 C94.4,79.6 93.6,80.1 93.4,80.2 C93.2,80.3 93.1,80.5 93.1,80.7 C93.1,81.9 94.3,85.3 96.8,90.7 C96,91.8 95.3,93.1 94.6,94.5 C87.4,95.2 83.8,96 83.8,96.8 L83.8,107 C83.8,107.8 87.4,108.5 94.6,109.3 C95.2,110.6 95.9,111.9 96.8,113.1 C94.3,118.6 93.1,121.9 93.1,123.1 C93.1,123.3 93.2,123.5 93.4,123.6 C99.3,127 102.3,128.8 102.4,128.8 C102.8,128.8 103.9,127.7 105.7,125.4 C107.5,123.1 108.8,121.5 109.5,120.5 C110.5,120.6 111.2,120.6 111.7,120.6 C112.2,120.6 112.9,120.6 113.9,120.5 C114.6,121.5 115.8,123.2 117.7,125.4 C119.5,127.7 120.7,128.8 121,128.8 C121.1,128.8 124.1,127.1 130,123.6 C130.2,123.5 130.3,123.3 130.3,123.1 C130.3,121.9 129.1,118.5 126.6,113.1 C127.5,111.9 128.2,110.6 128.8,109.3 C136,108.6 139.6,107.8 139.6,107 L139.6,96.8 C139.6,96 136,95.3 128.8,94.5 Z M118.3,108.4 C116.5,110.2 114.3,111.1 111.7,111.1 C109.1,111.1 106.9,110.2 105.1,108.4 C103.3,106.6 102.4,104.4 102.4,101.8 C102.4,99.3 103.3,97.1 105.2,95.3 C107,93.5 109.2,92.5 111.7,92.5 C114.2,92.5 116.4,93.4 118.2,95.3 C120,97.1 121,99.3 121,101.8 C121,104.4 120.1,106.6 118.3,108.4 Z" id="Shape"></path>
                <path d="M128.8,20.1 C128.2,18.7 127.4,17.4 126.6,16.3 C129.1,10.8 130.3,7.5 130.3,6.3 C130.3,6.1 130.2,5.9 130,5.8 C124.2,2.4 121.2,0.7 121,0.7 L120.6,0.8 C118.6,2.8 116.4,5.5 113.9,8.9 C112.9,8.8 112.2,8.8 111.7,8.8 C111.2,8.8 110.5,8.8 109.5,8.9 C108.8,7.9 107.6,6.2 105.7,4 C103.9,1.7 102.7,0.6 102.4,0.6 C102.3,0.6 101.6,1 100.2,1.8 C98.8,2.6 97.4,3.4 95.9,4.3 C94.4,5.2 93.6,5.7 93.4,5.8 C93.2,5.9 93.1,6.1 93.1,6.3 C93.1,7.5 94.3,10.9 96.8,16.3 C96,17.4 95.3,18.7 94.6,20.1 C87.4,20.8 83.8,21.6 83.8,22.4 L83.8,32.6 C83.8,33.4 87.4,34.1 94.6,34.9 C95.2,36.2 95.9,37.5 96.8,38.7 C94.3,44.2 93.1,47.5 93.1,48.7 C93.1,48.9 93.2,49.1 93.4,49.2 C99.3,52.6 102.3,54.4 102.4,54.4 C102.8,54.4 103.9,53.3 105.7,51 C107.5,48.7 108.8,47.1 109.5,46.1 C110.5,46.2 111.2,46.2 111.7,46.2 C112.2,46.2 112.9,46.2 113.9,46.1 C114.6,47.1 115.8,48.8 117.7,51 C119.5,53.3 120.7,54.4 121,54.4 C121.1,54.4 124.1,52.7 130,49.2 C130.2,49.1 130.3,48.9 130.3,48.7 C130.3,47.5 129.1,44.1 126.6,38.7 C127.5,37.5 128.2,36.2 128.8,34.9 C136,34.2 139.6,33.4 139.6,32.6 L139.6,22.4 C139.6,21.6 136,20.8 128.8,20.1 Z M118.3,34 C116.5,35.8 114.3,36.7 111.7,36.7 C109.1,36.7 106.9,35.8 105.1,34 C103.3,32.2 102.4,30 102.4,27.4 C102.4,24.9 103.3,22.7 105.2,20.9 C107,19.1 109.2,18.1 111.7,18.1 C114.2,18.1 116.4,19 118.2,20.9 C120,22.7 121,24.9 121,27.4 C121,30 120.1,32.2 118.3,34 Z" id="Shape"></path>
            </g>
        </g>
    </g>
</svg>